<svg width="82" height="16" viewBox="0 0 82 16" fill="none" xmlns="http://www.w3.org/2000/svg">
<path d="M9 11.4383L13.635 13.8393L12.405 9.31414L16.5 6.26951L11.1075 5.87686L9 1.60922L6.8925 5.87686L1.5 6.26951L5.595 9.31414L4.365 13.8393L9 11.4383Z" fill="#FFC448"/>
<path d="M25 11.4383L29.635 13.8393L28.405 9.31414L32.5 6.26951L27.1075 5.87686L25 1.60922L22.8925 5.87686L17.5 6.26951L21.595 9.31414L20.365 13.8393L25 11.4383Z" fill="#FFC448"/>
<path d="M41 11.4383L45.635 13.8393L44.405 9.31414L48.5 6.26951L43.1075 5.87686L41 1.60922L38.8925 5.87686L33.5 6.26951L37.595 9.31414L36.365 13.8393L41 11.4383Z" fill="#FFC448"/>
<path d="M57 11.4383L61.635 13.8393L60.405 9.31414L64.5 6.26951L59.1075 5.87686L57 1.60922L54.8925 5.87686L49.5 6.26951L53.595 9.31414L52.365 13.8393L57 11.4383Z" fill="#FFC448"/>
<path d="M73 11.4383L77.635 13.8393L76.405 9.31414L80.5 6.26951L75.1075 5.87686L73 1.60922L70.8925 5.87686L65.5 6.26951L69.595 9.31414L68.365 13.8393L73 11.4383Z" fill="#FFC448"/>
</svg>
