<svg width="24" height="24" viewBox="0 0 24 24" fill="none" xmlns="http://www.w3.org/2000/svg">
<path d="M2.9003 3.05156L5.3964 0.557813C5.57248 0.380962 5.78176 0.240642 6.01223 0.144915C6.2427 0.0491882 6.48981 -5.98116e-05 6.73937 5.45145e-08C7.24796 5.45145e-08 7.72608 0.199219 8.08468 0.557813L10.7706 3.24375C10.9475 3.41983 11.0878 3.62911 11.1835 3.85958C11.2792 4.09005 11.3285 4.33716 11.3284 4.58672C11.3284 5.09531 11.1292 5.57344 10.7706 5.93203L8.80655 7.89609C9.2663 8.90944 9.90549 9.8313 10.6933 10.6172C11.4791 11.4069 12.4009 12.0484 13.4144 12.5109L15.3784 10.5469C15.5545 10.37 15.7638 10.2297 15.9943 10.134C16.2247 10.0383 16.4718 9.989 16.7214 9.98906C17.23 9.98906 17.7081 10.1883 18.0667 10.5469L20.755 13.2305C20.9321 13.4069 21.0725 13.6165 21.1682 13.8474C21.264 14.0783 21.3131 14.3258 21.3128 14.5758C21.3128 15.0844 21.1136 15.5625 20.755 15.9211L18.2636 18.4125C17.6917 18.9867 16.9019 19.3125 16.0909 19.3125C15.9198 19.3125 15.7558 19.2984 15.5941 19.2703C12.4347 18.75 9.30108 17.0695 6.77218 14.543C4.24562 12.0188 2.56749 8.8875 2.04015 5.71875C1.88077 4.75078 2.20187 3.75469 2.9003 3.05156Z" fill="black"/>
</svg>
