<svg width="33" height="35" viewBox="0 0 33 35" fill="none" xmlns="http://www.w3.org/2000/svg">
<path d="M32.5 17.291C32.5 26.5867 25.3147 34.082 16.5 34.082C7.68525 34.082 0.5 26.5867 0.5 17.291C0.5 7.99527 7.68525 0.5 16.5 0.5C25.3147 0.5 32.5 7.99527 32.5 17.291Z" stroke="black"/>
<path d="M12.8029 18.4888C11.7183 19.3025 10.9583 20.405 10.9583 21.875V24.5H7.79164V21.875C7.79164 19.9675 10.6179 18.8388 12.8029 18.4888Z" fill="black"/>
<path d="M14.125 17.5C12.3754 17.5 10.9583 15.9338 10.9583 14C10.9583 12.0663 12.3754 10.5 14.125 10.5C14.4971 10.5 14.8454 10.5875 15.1779 10.71C14.5208 11.6112 14.125 12.7575 14.125 14C14.125 15.2425 14.5208 16.3888 15.1779 17.29C14.8454 17.4125 14.4971 17.5 14.125 17.5Z" fill="black"/>
<path d="M18.875 17.5C17.1254 17.5 15.7083 15.9338 15.7083 14C15.7083 12.0663 17.1254 10.5 18.875 10.5C20.6246 10.5 22.0416 12.0663 22.0416 14C22.0416 15.9338 20.6246 17.5 18.875 17.5ZM18.875 12.25C18.0041 12.25 17.2916 13.0375 17.2916 14C17.2916 14.9625 18.0041 15.75 18.875 15.75C19.7458 15.75 20.4583 14.9625 20.4583 14C20.4583 13.0375 19.7458 12.25 18.875 12.25Z" fill="black"/>
<path d="M18.875 18.375C20.9887 18.375 25.2083 19.5475 25.2083 21.875V24.5H12.5416V21.875C12.5416 19.5475 16.7612 18.375 18.875 18.375ZM14.125 22.75H23.625V21.8838C23.4666 21.2538 21.0125 20.125 18.875 20.125C16.7375 20.125 14.2833 21.2538 14.125 21.875V22.75Z" fill="black"/>
</svg>
