<svg width="33" height="33" viewBox="0 0 33 33" fill="none" xmlns="http://www.w3.org/2000/svg">
<circle cx="16.5" cy="16.5" r="16" stroke="black"/>
<path d="M22.75 11.2499H20.6667C20.6667 8.94784 18.8021 7.08325 16.5 7.08325C14.1979 7.08325 12.3334 8.94784 12.3334 11.2499H10.25C9.10419 11.2499 8.16669 12.1874 8.16669 13.3333V25.8333C8.16669 26.9791 9.10419 27.9166 10.25 27.9166H22.75C23.8959 27.9166 24.8334 26.9791 24.8334 25.8333V13.3333C24.8334 12.1874 23.8959 11.2499 22.75 11.2499ZM16.5 9.16659C17.6459 9.16659 18.5834 10.1041 18.5834 11.2499H14.4167C14.4167 10.1041 15.3542 9.16659 16.5 9.16659ZM22.75 25.8333H10.25V13.3333H12.3334V15.4166C12.3334 15.9895 12.8021 16.4583 13.375 16.4583C13.9479 16.4583 14.4167 15.9895 14.4167 15.4166V13.3333H18.5834V15.4166C18.5834 15.9895 19.0521 16.4583 19.625 16.4583C20.1979 16.4583 20.6667 15.9895 20.6667 15.4166V13.3333H22.75V25.8333Z" fill="black"/>
<circle cx="27" cy="6" r="6" fill="black"/>
<path d="M26.484 9.09C26.04 9.09 25.605 9.027 25.179 8.901C24.759 8.769 24.405 8.589 24.117 8.361L24.612 7.452C24.84 7.638 25.116 7.788 25.44 7.902C25.77 8.016 26.112 8.073 26.466 8.073C26.88 8.073 27.204 7.986 27.438 7.812C27.678 7.638 27.798 7.404 27.798 7.11C27.798 6.912 27.747 6.738 27.645 6.588C27.549 6.438 27.375 6.324 27.123 6.246C26.877 6.168 26.538 6.129 26.106 6.129H24.585L24.909 2.7H28.608V3.681H25.341L25.953 3.123L25.71 5.688L25.098 5.139H26.367C26.991 5.139 27.492 5.223 27.87 5.391C28.254 5.553 28.533 5.781 28.707 6.075C28.887 6.363 28.977 6.693 28.977 7.065C28.977 7.431 28.887 7.767 28.707 8.073C28.527 8.379 28.251 8.625 27.879 8.811C27.513 8.997 27.048 9.09 26.484 9.09Z" fill="white"/>
</svg>
